<?xml version="1.0" ?><svg height="100" id="svg2" version="1.1" width="100" xmlns="http://www.w3.org/2000/svg" xmlns:cc="http://creativecommons.org/ns#" xmlns:dc="http://purl.org/dc/elements/1.1/" xmlns:inkscape="http://www.inkscape.org/namespaces/inkscape" xmlns:rdf="http://www.w3.org/1999/02/22-rdf-syntax-ns#" xmlns:sodipodi="http://sodipodi.sourceforge.net/DTD/sodipodi-0.dtd" xmlns:svg="http://www.w3.org/2000/svg"><defs id="defs4"/><g id="layer1" transform="translate(0,-952.36217)"><path d="m 12.702968,973.5411 0,45 c 0,4.1421 13.431458,7.5 30,7.5 16.568542,0 30,-3.3579 30,-7.5 l 0,-45 z" id="path8610" style="fill:#bababa;fill-opacity:1;fill-rule:nonzero;stroke:#222222;stroke-width:5;stroke-linejoin:round;stroke-miterlimit:4;stroke-opacity:1;stroke-dasharray:none"/><path d="m 72.702968,973.5411 c 0,4.14214 -13.431458,7.5 -30,7.5 -16.568542,0 -30,-3.35786 -30,-7.5 0,-4.14214 13.431458,-7.5 30,-7.5 16.568542,0 30,3.35786 30,7.5 z" id="path8607" style="fill:#898989;fill-opacity:1;fill-rule:nonzero;stroke:#222222;stroke-width:5;stroke-miterlimit:4;stroke-opacity:1;stroke-dasharray:none"/><path d="m 72.702968,988.5411 c 0,4.14214 -13.431458,7.50005 -30,7.50005 -16.568542,0 -30,-3.35791 -30,-7.50005" id="path8615" style="fill:none;stroke:#222222;stroke-width:5;stroke-linejoin:round;stroke-miterlimit:4;stroke-opacity:1;stroke-dasharray:none"/><path d="m 72.702968,1003.5411 c 0,4.1421 -13.431458,7.5 -30,7.5 -16.568542,0 -30,-3.3579 -30,-7.5" id="path8617" style="fill:none;stroke:#222222;stroke-width:5;stroke-linejoin:round;stroke-miterlimit:4;stroke-opacity:1;stroke-dasharray:none"/><path d="m 37.702968,993.4161 c -10.633615,-4.25541 5.131511,-9.95524 9.981369,-9.97411 -10.615825,0.5628 -25.339659,-0.80145 -32.465744,-4.05714 l -0.01563,9.03125 c 0.938699,1.76713 10.102345,4.58914 22.5,5 z" id="path8619" style="opacity:0.15;color:#000000;fill:#000000;fill-opacity:1;stroke:none;stroke-width:1px;marker:none;visibility:visible;display:inline;overflow:visible;enable-background:accumulate"/><path d="m 32.275587,1008.0278 c -8.321115,-5.0366 2.819931,-9.00025 9.451039,-9.48785 -10.834575,-0.1872 -19.551793,-1.2434 -26.543725,-4.1897 l -0.01563,9.03115 c 1.572852,1.8502 8.363765,4.0168 17.108316,4.6464 z" id="path8621" style="opacity:0.15;color:#000000;fill:#000000;fill-opacity:1;stroke:none;stroke-width:1px;marker:none;visibility:visible;display:inline;overflow:visible;enable-background:accumulate"/><path d="m 22.68862,1021.5488 c -7.164865,-3.2554 3.253259,-8.6293 8.103117,-8.6482 -7.961954,-0.7397 -13.439593,-2.4528 -15.592263,-3.5429 l -0.01563,9.0312 c 1.307227,1.694 6.6821,3.0147 7.504776,3.1599 z" id="path8623" style="opacity:0.15;color:#000000;fill:#000000;fill-opacity:1;stroke:none;stroke-width:1px;marker:none;visibility:visible;display:inline;overflow:visible;enable-background:accumulate"/><circle cx="22.220465" cy="20.598463" id="path8564" r="7.5" style="fill:#5eb4e7;fill-opacity:1;fill-rule:nonzero;stroke:none" transform="translate(47.655074,999.04115)"/><g id="g6005" style="stroke:#222222;stroke-width:3.58487916;stroke-miterlimit:4;stroke-opacity:1;stroke-dasharray:none" transform="matrix(1.1157977,0,0,1.1157977,20.117469,-90.22094)"><path d="m 35.812099,979.84207 1.106486,4.1295 c -0.879027,0.5239 -1.675845,1.132 -2.393662,1.8318 l -3.701272,-2.1369 -3.533752,6.1206 3.701271,2.137 c -0.24716,0.9715 -0.375412,1.9656 -0.389561,2.9888 l -4.12946,1.1065 1.831431,6.83503 4.129459,-1.1065 c 0.523845,0.879 1.13198,1.6759 1.831807,2.3937 l -2.136925,3.7013 6.120646,3.5338 2.136926,-3.7014 c 0.971546,0.2471 1.965692,0.3755 2.988867,0.3896 l 1.106487,4.1295 6.834968,-1.8315 -1.106486,-4.1295 c 0.879031,-0.5237 1.675835,-1.1319 2.393669,-1.8317 l 3.70128,2.1369 3.533745,-6.1206 -3.701281,-2.13703 c 0.247162,-0.9715 0.375414,-1.9657 0.38956,-2.9889 l 4.129463,-1.1064 -1.831432,-6.8351 -4.129463,1.1065 c -0.52384,-0.879 -1.131974,-1.6758 -1.831803,-2.3936 L 55,982.36217 l -6.120642,-3.5338 -2.13693,3.7014 c -0.971564,-0.2472 -1.965694,-0.3755 -2.988874,-0.3896 l -1.106487,-4.1295 -6.834968,1.8314 z m 5.920431,8.4254 c 3.774847,-1.0114 7.654923,1.2287 8.6664,5.0036 1.011469,3.7748 -1.228698,7.65503 -5.003546,8.66643 -3.774849,1.0114 -7.654922,-1.2287 -8.666391,-5.00353 -1.011477,-3.7749 1.228687,-7.655 5.003537,-8.6665 z" id="path4090" style="color:#000000;fill:#a7a09d;fill-opacity:1;stroke:#222222;stroke-width:3.58487916;stroke-linecap:butt;stroke-linejoin:round;stroke-miterlimit:4;stroke-opacity:1;stroke-dasharray:none;stroke-dashoffset:0;marker:none;visibility:visible;display:inline;overflow:visible;enable-background:accumulate"/></g><path d="m 65.071654,1024.7623 c -1.39362,-1.0865 -2.28986,-2.7812 -2.28986,-4.6852 0,-3.2792 2.65831,-5.9375 5.9375,-5.9375 1.57539,0 3.00748,0.6135 4.07035,1.6147 -5.26405,-2.7898 -11.54312,3.5743 -7.71799,9.008 z" id="path8566" style="opacity:0.15;fill:#000000;fill-opacity:1;fill-rule:nonzero;stroke:none"/></g></svg>