<?xml version="1.0" encoding="UTF-8"?>
<svg width="388.8pt" height="115pt" version="1.1" xmlns="http://www.w3.org/2000/svg" xmlns:dc="http://purl.org/dc/elements/1.1/" xmlns:rdf="http://www.w3.org/1999/02/22-rdf-syntax-ns#" xmlns:xlink="http://www.w3.org/1999/xlink">
<title>Python programming language logo</title>
 <metadata>
  <rdf:RDF>
    <dc:format>image/svg+xml</dc:format>
    <dc:type rdf:resource="http://purl.org/dc/dcmitype/StillImage"/>
    <dc:title/>
  </rdf:RDF>
 </metadata>
 <defs>
  <linearGradient id="vlpc" x1="151" x2="112" y1="192.4" y2="137.3" gradientTransform="matrix(.5625 0 0 .568 -9.4 -5.305)" gradientUnits="userSpaceOnUse">
   <stop style="stop-color:#ffd43b" offset="0"/>
   <stop style="stop-color:#ffe873" offset="1"/>
  </linearGradient>
  <linearGradient id="vlpb" x1="26.65" x2="135.7" y1="20.6" y2="114.4" gradientTransform="matrix(.5625 0 0 .568 -9.4 -5.305)" gradientUnits="userSpaceOnUse">
   <stop style="stop-color:#5a9fd4" offset="0"/>
   <stop style="stop-color:#306998" offset="1"/>
  </linearGradient>
  <radialGradient id="vlpa" cx="61.52" cy="132.3" r="29.04" gradientTransform="matrix(2.383e-8 -.2964 1.437 4.684e-7 -128.5 150.5)" gradientUnits="userSpaceOnUse">
   <stop style="stop-color:#b8b8b8;stop-opacity:.498" offset="0"/>
   <stop style="stop-color:#7f7f7f;stop-opacity:0" offset="1"/>
  </radialGradient>
 </defs>
 <path d="m184.6 61.93c0-14.56-4.152-22.04-12.46-22.45-3.304-0.156-6.531 0.3704-9.669 1.589-2.505 0.8967-4.191 1.784-5.078 2.68v34.76c5.312 3.334 10.03 4.883 14.14 4.64 8.704-0.5751 13.06-7.642 13.06-21.22zm10.24 0.6043c0 7.398-1.735 13.54-5.224 18.42-3.889 5.527-9.279 8.373-16.17 8.529-5.195 0.1657-10.55-1.462-16.05-4.874v31.59l-8.909-3.178v-70.12c1.462-1.793 3.343-3.334 5.624-4.64 5.302-3.09 11.75-4.679 19.33-4.757l0.1267 0.1267c6.93-0.08773 12.27 2.758 16.02 8.529 3.499 5.293 5.254 12.08 5.254 20.37z" style="fill:#646464"/>
 <path d="m249.3 83.27c0 9.923-0.9942 16.79-2.983 20.62-1.998 3.821-5.8 6.872-11.41 9.143-4.552 1.793-9.474 2.768-14.76 2.934l-1.472-5.614c5.371-0.731 9.153-1.462 11.35-2.193 4.318-1.462 7.281-3.704 8.909-6.706 1.306-2.447 1.949-7.115 1.949-14.03v-2.32c-6.092 2.768-12.48 4.143-19.15 4.143-4.386 0-8.256-1.374-11.59-4.143-3.743-3.012-5.614-6.833-5.614-11.46v-37.08l8.909-3.051v37.32c0 3.987 1.287 7.057 3.86 9.211 2.573 2.154 5.907 3.187 9.991 3.109 4.084-0.08773 8.46-1.667 13.11-4.757v-43.54h8.909v48.41z" style="fill:#646464"/>
 <path d="m284.1 89c-1.062 0.08772-2.037 0.1267-2.934 0.1267-5.039 0-8.967-1.199-11.77-3.606-2.797-2.408-4.201-5.731-4.201-9.971v-35.09h-6.102v-5.605h6.102v-14.88l8.899-3.168v18.05h10.01v5.605h-10.01v34.85c0 3.343 0.8967 5.712 2.69 7.096 1.54 1.14 3.987 1.793 7.32 1.959v4.64z" style="fill:#646464"/>
 <path d="m338 88.27h-8.909v-34.39c0-3.499-0.8188-6.511-2.447-9.026-1.881-2.846-4.493-4.269-7.846-4.269-4.084 0-9.192 2.154-15.32 6.462v41.22h-8.909v-82.2l8.909-2.807v37.44c5.692-4.143 11.91-6.219 18.67-6.219 4.718 0 8.538 1.589 11.46 4.757 2.934 3.168 4.396 7.115 4.396 11.83v37.19z" style="fill:#646464"/>
 <path d="m385.4 60.53c0-5.595-1.062-10.21-3.178-13.87-2.515-4.454-6.423-6.803-11.71-7.047-9.767 0.5653-14.64 7.564-14.64 20.98 0 6.15 1.014 11.29 3.061 15.41 2.612 5.254 6.531 7.846 11.76 7.759 9.806-0.07798 14.71-7.817 14.71-23.23zm9.757 0.05848c0 7.963-2.037 14.59-6.102 19.88-4.474 5.926-10.65 8.899-18.54 8.899-7.817 0-13.91-2.973-18.31-8.899-3.987-5.293-5.975-11.92-5.975-19.88 0-7.486 2.154-13.78 6.462-18.91 4.552-5.439 10.54-8.168 17.93-8.168 7.398 0 13.42 2.729 18.06 8.168 4.308 5.127 6.462 11.42 6.462 18.91z" style="fill:#646464"/>
 <path d="m446.2 88.27h-8.909v-36.34c0-3.987-1.199-7.096-3.597-9.338-2.398-2.232-5.595-3.314-9.581-3.226-4.23 0.07798-8.256 1.462-12.08 4.143v44.76h-8.909v-45.86c5.127-3.733 9.845-6.17 14.15-7.31 4.065-1.062 7.651-1.589 10.74-1.589 2.115 0 4.104 0.2047 5.975 0.6141 3.499 0.809 6.345 2.31 8.538 4.513 2.447 2.437 3.665 5.361 3.665 8.782v40.85z" style="fill:#646464"/>
 <path d="m60.51 6.398c-4.584 0.0213-8.961 0.4122-12.81 1.094-11.35 2.005-13.41 6.2-13.41 13.94v10.22h26.81v3.406h-26.81-10.06c-7.792 0-14.62 4.684-16.75 13.59-2.462 10.21-2.571 16.59 0 27.25 1.906 7.938 6.458 13.59 14.25 13.59h9.219v-12.25c0-8.85 7.657-16.66 16.75-16.66h26.78c7.455 0 13.41-6.138 13.41-13.62v-25.53c0-7.266-6.13-12.72-13.41-13.94-4.606-0.7667-9.385-1.115-13.97-1.094zm-14.5 8.219c2.77 0 5.031 2.299 5.031 5.125-2e-6 2.816-2.262 5.094-5.031 5.094-2.779-1e-6 -5.031-2.277-5.031-5.094-1e-6 -2.826 2.252-5.125 5.031-5.125z" style="fill:url(#vlpb)"/>
 <path d="m91.23 35.05v11.91c0 9.231-7.826 17-16.75 17h-26.78c-7.336 0-13.41 6.278-13.41 13.62v25.53c0 7.266 6.319 11.54 13.41 13.62 8.487 2.496 16.63 2.947 26.78 0 6.75-1.954 13.41-5.888 13.41-13.62v-10.22h-26.78v-3.406h26.78 13.41c7.792 0 10.7-5.435 13.41-13.59 2.799-8.399 2.68-16.48 0-27.25-1.926-7.757-5.604-13.59-13.41-13.59h-10.06zm-15.06 64.66c2.779 3e-6 5.031 2.277 5.031 5.094-2e-6 2.826-2.252 5.125-5.031 5.125-2.77 0-5.031-2.299-5.031-5.125 2e-6 -2.816 2.262-5.094 5.031-5.094z" style="fill:url(#vlpc)"/>
 <path d="m463.6 26.91h1.562v-9.796h3.7v-1.168h-8.962v1.168h3.7v9.796m6.647 0h1.334v-8.947l2.896 8.946h1.486l3.018-8.916v8.917h1.456v-10.96h-1.926l-3.298 9.393-2.813-9.393h-2.153v10.96" style="fill:#646464"/>
 <path transform="matrix(.7341 0 0 .8095 16.25 27.01)" d="m110.5 132.3a48.95 8.607 0 1 1-97.9 0 48.95 8.607 0 1 1 97.9 0z" style="fill:url(#vlpa);opacity:.4438"/>
</svg>
