<?xml version="1.0" encoding="UTF-8"?><svg id="Layer_1" xmlns="http://www.w3.org/2000/svg" viewBox="0 0 264.04 52.53"><defs><style>.cls-1{fill:#1ad1ec;}</style></defs><g><path class="cls-1" d="M34.08,24.59c.1-.05,.2-.09,.3-.13l.61-.21L26.61,.25l-.12-.25h-.27c-1.26,.01-2.52,.11-3.77,.3l-.5,.08,11.78,24.36,.33-.16Z"/><path class="cls-1" d="M32.5,25.78c.13-.14,.27-.28,.42-.41l.28-.25L13.87,3.43l-.2-.22-.26,.15c-1.19,.67-2.33,1.44-3.41,2.29l-.35,.28,22.6,20.14,.25-.28Z"/><path class="cls-1" d="M31.51,27.49c.06-.18,.14-.36,.22-.54l.16-.34L3.62,12.93l-.17,.3c-.7,1.22-1.3,2.51-1.79,3.83l-.13,.36,29.86,10.42,.12-.35Z"/><path class="cls-1" d="M31.23,29.45c0-.07,0-.14-.02-.21h0v-.1s0-.08,.01-.12c0-.06,.02-.12,.02-.18v-.36S0,26.68,0,26.68v.41c.05,1.39,.2,2.8,.46,4.17l.06,.32,30.71-1.77v-.35Z"/><path class="cls-1" d="M31.73,31.35c-.08-.18-.16-.36-.22-.54l-.12-.35L3.88,40.03l.26,.4c.72,1.12,1.53,2.19,2.42,3.19l.19,.21,25.14-12.15-.16-.33Z"/><path class="cls-1" d="M32.92,32.92c-.15-.13-.28-.27-.41-.41l-.25-.28h0s0,0,0,0L13.29,49.13l.47,.25c1.08,.57,2.21,1.07,3.35,1.49l.24,.09,15.85-17.79-.28-.25Z"/><path class="cls-1" d="M34.63,33.91c-.18-.06-.36-.14-.54-.22l-.34-.16h0s-.01,0-.01,0l-9.15,18.94h.59c.18,0,.34,.01,.51,.02,.18,.01,.36,.03,.54,.03,.71,0,1.42-.05,2.1-.1l.24-.02,6.41-18.37-.36-.12Z"/></g><g><path d="M36.59,34.19c-.07,0-.14,0-.21,.02-.07,.01-.15,0-.22,0-.06,0-.12-.02-.18-.02h-.36s-.98,16.94-.98,16.94l.53-.19c.83-.3,1.66-.65,2.45-1.03l.22-.11-.9-15.61h-.35Z"/><path d="M40.06,32.51c-.13,.15-.27,.28-.41,.41l-.28,.25,7.87,8.83,.27-.38c.38-.52,.74-1.06,1.07-1.61l.16-.27-8.44-7.52-.25,.28Z"/><path d="M41.33,28.48v.35c0,.07,0,.14,.02,.21,0,.03,.01,.07,.01,.1,0,.04,0,.08-.01,.12,0,.06-.02,.12-.02,.18v.36s10.81,.62,10.81,.62l.05-.34c.1-.68,.16-1.28,.21-1.82l.03-.43-11.1,.64Z"/><path d="M39.64,25.36c.15,.13,.28,.27,.41,.41l.25,.28,10.4-9.27-.1-.24c-.28-.72-.61-1.45-.99-2.17l-.25-.48-10.01,11.23,.28,.25Z"/><path d="M35.98,24.09c.07,0,.14,0,.21-.02,.07-.01,.15,0,.22,0,.06,0,.12,.02,.18,.02h.36s1.22-21.2,1.22-21.2l-.22-.11c-1.01-.5-2.06-.95-3.12-1.31l-.53-.18,1.31,22.81h.35Z"/><path d="M38.48,33.7c-.17,.08-.35,.16-.54,.22l-.35,.12,4.56,13.1,.41-.33c.57-.45,1.08-.92,1.62-1.41l.26-.23-5.62-11.63-.33,.16Z"/><path d="M41.05,30.81c-.06,.18-.14,.36-.22,.54l-.16,.33,9.77,4.74,.15-.37c.18-.45,.42-1.06,.62-1.7l.11-.35-10.15-3.55-.12,.36Z"/><path d="M40.84,26.94c.08,.17,.16,.35,.22,.54l.12,.36,11.22-3.88-.03-.29c-.07-.68-.18-1.34-.3-2.01l-.09-.48-11.3,5.43,.16,.34Z"/><path d="M37.94,24.37c.18,.06,.36,.14,.54,.22l.33,.16,7.46-15.42-.16-.19c-.62-.72-1.29-1.41-1.99-2.06l-.42-.39-6.11,17.55,.35,.12Z"/></g><g><path d="M69.32,35.76c.84,1.26,1.92,2.2,3.23,2.79,1.31,.6,2.66,.9,4.06,.9,.78,0,1.57-.12,2.38-.37,.81-.24,1.55-.61,2.21-1.09s1.21-1.08,1.63-1.8c.42-.71,.63-1.54,.63-2.48,0-1.33-.42-2.34-1.26-3.04-.84-.7-1.89-1.28-3.14-1.75-1.25-.47-2.61-.92-4.08-1.36-1.48-.44-2.84-1.05-4.08-1.82-1.25-.78-2.29-1.82-3.14-3.14-.84-1.31-1.26-3.09-1.26-5.32,0-1,.22-2.07,.66-3.21,.44-1.13,1.13-2.17,2.06-3.11s2.15-1.72,3.62-2.36c1.48-.63,3.25-.95,5.32-.95,1.88,0,3.68,.26,5.4,.78,1.72,.52,3.22,1.57,4.52,3.16l-3.79,3.45c-.58-.91-1.41-1.64-2.48-2.19-1.07-.55-2.29-.82-3.65-.82s-2.37,.17-3.23,.51-1.55,.78-2.06,1.31c-.52,.54-.88,1.11-1.09,1.73-.21,.62-.32,1.18-.32,1.7,0,1.46,.42,2.58,1.26,3.35,.84,.78,1.89,1.41,3.14,1.89,1.25,.49,2.61,.92,4.08,1.31,1.48,.39,2.84,.93,4.08,1.63,1.25,.7,2.29,1.64,3.14,2.82,.84,1.18,1.26,2.81,1.26,4.89,0,1.65-.32,3.14-.95,4.47-.63,1.33-1.48,2.45-2.55,3.35-1.07,.91-2.33,1.6-3.79,2.09-1.46,.48-3.01,.73-4.67,.73-2.2,0-4.29-.39-6.27-1.16-1.98-.78-3.55-1.98-4.72-3.6l3.84-3.31Z"/><path d="M106.55,23.71h-6.27v10.45c0,.65,.02,1.29,.05,1.92,.03,.63,.15,1.2,.36,1.7,.21,.5,.53,.91,.97,1.21,.44,.31,1.08,.46,1.92,.46,.52,0,1.05-.05,1.6-.15,.55-.1,1.05-.27,1.51-.54v3.99c-.52,.29-1.19,.49-2.02,.61-.82,.11-1.47,.17-1.92,.17-1.69,0-2.99-.24-3.91-.7-.92-.47-1.6-1.08-2.04-1.82s-.7-1.58-.78-2.5c-.08-.92-.12-1.85-.12-2.79v-12.01h-5.06v-3.79h5.06v-6.47h4.38v6.47h6.27v3.79Z"/><path d="M112.29,22.73c1.23-1.13,2.66-1.98,4.28-2.55,1.62-.57,3.24-.85,4.86-.85s3.14,.21,4.35,.63c1.22,.42,2.21,.99,2.99,1.7,.78,.71,1.35,1.53,1.72,2.45,.37,.92,.56,1.89,.56,2.89v11.76c0,.81,.02,1.56,.05,2.24s.08,1.33,.15,1.94h-3.89c-.1-1.17-.15-2.33-.15-3.5h-.1c-.97,1.49-2.12,2.54-3.45,3.16s-2.87,.92-4.62,.92c-1.07,0-2.09-.15-3.06-.44-.97-.29-1.82-.73-2.55-1.31-.73-.58-1.31-1.3-1.73-2.16s-.63-1.86-.63-2.99c0-1.49,.33-2.74,1-3.74,.66-1,1.57-1.82,2.72-2.45,1.15-.63,2.49-1.09,4.03-1.36,1.54-.27,3.18-.41,4.93-.41h3.21v-.97c0-.58-.11-1.17-.34-1.75s-.57-1.11-1.02-1.58c-.45-.47-1.02-.84-1.7-1.12-.68-.27-1.49-.41-2.43-.41-.84,0-1.58,.08-2.21,.24-.63,.16-1.21,.37-1.72,.61-.52,.24-.99,.53-1.41,.85s-.83,.63-1.22,.92l-2.62-2.72Zm12.35,9.14c-1.04,0-2.1,.06-3.18,.17-1.09,.11-2.07,.33-2.96,.65-.89,.32-1.62,.78-2.19,1.36-.57,.58-.85,1.33-.85,2.24,0,1.33,.45,2.28,1.34,2.87,.89,.58,2.1,.87,3.62,.87,1.2,0,2.22-.2,3.06-.61,.84-.4,1.52-.93,2.04-1.58,.52-.65,.89-1.37,1.12-2.16,.23-.79,.34-1.58,.34-2.36v-1.46h-2.33Z"/><path d="M137.42,19.92h4.38v3.55h.1c.29-.62,.68-1.17,1.17-1.68s1.03-.93,1.63-1.29,1.26-.64,1.97-.85c.71-.21,1.42-.32,2.14-.32s1.36,.1,1.94,.29l-.19,4.71c-.36-.1-.71-.18-1.07-.24s-.71-.1-1.07-.1c-2.14,0-3.78,.6-4.91,1.8-1.14,1.2-1.7,3.06-1.7,5.59v11.57h-4.38V19.92Z"/><path d="M155.4,6.21h4.38V23.22h.1c.78-1.2,1.9-2.15,3.35-2.84,1.46-.7,3.01-1.04,4.67-1.04,1.78,0,3.39,.31,4.84,.92,1.44,.62,2.67,1.47,3.69,2.55,1.02,1.09,1.81,2.37,2.36,3.84,.55,1.47,.83,3.07,.83,4.79s-.27,3.31-.83,4.76-1.34,2.74-2.36,3.84c-1.02,1.1-2.25,1.96-3.69,2.58-1.44,.62-3.06,.92-4.84,.92-1.55,0-3.07-.34-4.55-1.02-1.47-.68-2.63-1.64-3.48-2.87h-.1v3.31h-4.38V6.21Zm11.96,33.25c1.17,0,2.22-.2,3.16-.61,.94-.4,1.73-.96,2.38-1.65,.65-.7,1.15-1.54,1.51-2.53s.54-2.07,.54-3.23-.18-2.24-.54-3.23c-.36-.99-.86-1.83-1.51-2.53-.65-.7-1.44-1.25-2.38-1.65s-1.99-.61-3.16-.61-2.22,.2-3.16,.61-1.73,.96-2.38,1.65c-.65,.7-1.15,1.54-1.51,2.53-.36,.99-.53,2.07-.53,3.23s.18,2.24,.53,3.23,.86,1.83,1.51,2.53,1.44,1.25,2.38,1.65c.94,.41,1.99,.61,3.16,.61Z"/><path d="M205.52,42.96h-4.38v-3.55h-.1c-.55,1.23-1.51,2.23-2.87,2.99-1.36,.76-2.93,1.14-4.72,1.14-1.13,0-2.2-.17-3.21-.51s-1.89-.87-2.65-1.58c-.76-.71-1.37-1.63-1.82-2.75-.45-1.12-.68-2.44-.68-3.96v-14.83h4.38v13.61c0,1.07,.15,1.99,.44,2.75,.29,.76,.68,1.38,1.17,1.85,.49,.47,1.04,.81,1.68,1.02,.63,.21,1.29,.32,1.97,.32,.91,0,1.75-.15,2.53-.44,.78-.29,1.46-.75,2.04-1.38,.58-.63,1.04-1.43,1.36-2.41,.32-.97,.49-2.12,.49-3.45v-11.86h4.38v23.04Z"/><path d="M212.13,19.92h4.38v3.55h.1c.29-.62,.68-1.17,1.17-1.68s1.03-.93,1.63-1.29,1.26-.64,1.97-.85c.71-.21,1.42-.32,2.14-.32s1.36,.1,1.94,.29l-.19,4.71c-.36-.1-.71-.18-1.07-.24s-.71-.1-1.07-.1c-2.14,0-3.78,.6-4.91,1.8-1.14,1.2-1.7,3.06-1.7,5.59v11.57h-4.38V19.92Z"/><path d="M242.36,25.7c-.52-.65-1.16-1.19-1.92-1.63-.76-.44-1.7-.66-2.8-.66-1.04,0-1.94,.22-2.7,.66s-1.14,1.08-1.14,1.92c0,.68,.22,1.23,.66,1.65s.96,.76,1.55,1.02,1.24,.45,1.92,.58c.68,.13,1.26,.24,1.75,.34,.94,.23,1.82,.5,2.65,.82,.83,.32,1.54,.75,2.14,1.26,.6,.52,1.07,1.15,1.41,1.9s.51,1.65,.51,2.72c0,1.3-.27,2.41-.83,3.33-.55,.92-1.26,1.68-2.14,2.26s-1.87,1-2.99,1.26c-1.12,.26-2.24,.39-3.38,.39-1.91,0-3.59-.29-5.03-.87-1.44-.58-2.73-1.65-3.86-3.21l3.31-2.72c.71,.71,1.51,1.34,2.38,1.9,.87,.55,1.94,.83,3.21,.83,.55,0,1.11-.06,1.68-.17,.57-.11,1.07-.29,1.51-.54s.8-.55,1.07-.92c.27-.37,.41-.8,.41-1.29,0-.65-.2-1.18-.61-1.6-.41-.42-.89-.75-1.46-1-.57-.24-1.16-.44-1.8-.58-.63-.14-1.19-.27-1.68-.36-.94-.23-1.83-.49-2.67-.78-.84-.29-1.59-.68-2.24-1.17s-1.17-1.1-1.55-1.85c-.39-.75-.58-1.67-.58-2.77,0-1.2,.25-2.24,.75-3.14,.5-.89,1.16-1.63,1.99-2.21s1.77-1.02,2.82-1.31c1.05-.29,2.11-.44,3.18-.44,1.56,0,3.05,.29,4.47,.87,1.43,.58,2.56,1.56,3.4,2.92l-3.4,2.58Z"/><path d="M264.04,23.71h-6.27v10.45c0,.65,.02,1.29,.05,1.92,.03,.63,.15,1.2,.36,1.7,.21,.5,.53,.91,.97,1.21,.44,.31,1.08,.46,1.92,.46,.52,0,1.05-.05,1.6-.15,.55-.1,1.05-.27,1.51-.54v3.99c-.52,.29-1.19,.49-2.02,.61-.82,.11-1.47,.17-1.92,.17-1.69,0-2.99-.24-3.91-.7-.92-.47-1.6-1.08-2.04-1.82s-.7-1.58-.78-2.5c-.08-.92-.12-1.85-.12-2.79v-12.01h-5.06v-3.79h5.06v-6.47h4.38v6.47h6.27v3.79Z"/></g></svg>